<svg width="46" height="50" viewBox="0 0 46 50" fill="none" xmlns="http://www.w3.org/2000/svg">
<path d="M30.9917 8.33331V6.24998C30.9899 4.59296 30.3363 3.00433 29.1742 1.83263C28.0122 0.660937 26.4367 0.00186102 24.7934 0L20.6612 0C19.0178 0.00186102 17.4423 0.660937 16.2803 1.83263C15.1183 3.00433 14.4647 4.59296 14.4628 6.24998V8.33331H0V12.5H45.4545V8.33331H30.9917ZM18.595 6.24998C18.5957 5.69764 18.8135 5.1681 19.2009 4.77753C19.5882 4.38697 20.1134 4.16728 20.6612 4.16666H24.7934C25.3412 4.16728 25.8663 4.38697 26.2537 4.77753C26.641 5.1681 26.8589 5.69764 26.8595 6.24998V8.33331H18.595V6.24998Z" fill="#D2AC7D"/>
<path d="M5.80175 44.4404C5.96893 45.9697 6.69015 47.3828 7.82709 48.4088C8.96402 49.4349 10.4366 50.0015 11.9624 50.0001H33.4908C35.0166 50.0015 36.4892 49.4348 37.6262 48.4087C38.7631 47.3827 39.4843 45.9695 39.6514 44.4402L42.9415 14.5835H2.51172L5.80175 44.4404ZM30.9983 18.577L35.1161 18.9233L33.0499 43.9233L28.9322 43.5769L30.9983 18.577ZM20.6605 18.7502H24.7927V43.7501H20.6605V18.7502ZM14.4549 18.577L16.521 43.5769L12.4032 43.9233L10.3371 18.9233L14.4549 18.577Z" fill="#D2AC7D"/>
</svg>
