<svg width="40" height="40" viewBox="0 0 40 40" fill="none" xmlns="http://www.w3.org/2000/svg">
<path d="M38.8666 6.83333C37.9166 5.66667 36.5 5 35 5H12.0667L12 4.41667C11.7 1.9 9.56665 0 7.03332 0H4.99999C4.08333 0 3.33333 0.75 3.33333 1.66667C3.33333 2.58333 4.08333 3.33333 4.99999 3.33333H7.03332C7.88332 3.33333 8.58332 3.96667 8.68332 4.8L10.9833 24.3C11.4833 28.5 15.0333 31.6667 19.2666 31.6667H33.3333C34.25 31.6667 35 30.9167 35 30C35 29.0833 34.25 28.3333 33.3333 28.3333H19.2666C17.1166 28.3333 15.2666 26.95 14.5666 25H30.2666C34.2333 25 37.6666 22.1833 38.4333 18.3L39.9 10.9833C40.2 9.51667 39.8166 8 38.8666 6.83333ZM18.3333 36.6667C18.3333 38.5 16.8333 40 15 40C13.1667 40 11.6667 38.5 11.6667 36.6667C11.6667 34.8333 13.1667 33.3333 15 33.3333C16.8333 33.3333 18.3333 34.8333 18.3333 36.6667ZM33.3333 36.6667C33.3333 38.5 31.8333 40 30 40C28.1666 40 26.6666 38.5 26.6666 36.6667C26.6666 34.8333 28.1666 33.3333 30 33.3333C31.8333 33.3333 33.3333 34.8333 33.3333 36.6667ZM0 10C0 9.08333 0.749999 8.33333 1.66666 8.33333H4.23333C5.14999 8.33333 5.89999 9.08333 5.89999 10C5.89999 10.9167 5.14999 11.6667 4.23333 11.6667H1.66666C0.749999 11.6667 0 10.9167 0 10ZM0 16.6667C0 15.75 0.749999 15 1.66666 15H4.99999C5.91666 15 6.66666 15.75 6.66666 16.6667C6.66666 17.5833 5.91666 18.3333 4.99999 18.3333H1.66666C0.749999 18.3333 0 17.5833 0 16.6667ZM8.33332 23.3333C8.33332 24.25 7.58332 25 6.66666 25H1.66666C0.749999 25 0 24.25 0 23.3333C0 22.4167 0.749999 21.6667 1.66666 21.6667H6.66666C7.58332 21.6667 8.33332 22.4167 8.33332 23.3333Z" fill="#FBEFE3"/>
</svg>
