<svg width="18" height="20" viewBox="0 0 18 20" fill="none" xmlns="http://www.w3.org/2000/svg">
<path fill-rule="evenodd" clip-rule="evenodd" d="M15.8462 2.45H11.9487C11.6923 1.05 10.4615 0 8.97436 0C7.48718 0 6.25641 1.05 6 2.45H2.10256C0.923077 2.45 0 3.35 0 4.5C0 5.65 0.923077 6.5 2.10256 6.5H15.8974C17.0769 6.5 18 5.6 18 4.45C18 3.3 17.0256 2.45 15.8462 2.45ZM8.97436 1C9.89744 1 10.6667 1.6 10.8718 2.45H7.02564C7.28205 1.6 8.05128 1 8.97436 1ZM2.10256 5.5C1.53846 5.5 1.02564 5.05 1.02564 4.45C1.02564 3.9 1.48718 3.4 2.10256 3.4H15.8974C16.4615 3.4 16.9744 3.85 16.9744 4.45C16.9231 5.05 16.4615 5.5 15.8462 5.5H2.10256ZM4.82051 20C3.12821 20 1.79487 18.65 1.79487 17.05V8C1.79487 7.7 2 7.5 2.30769 7.5C2.61538 7.5 2.82051 7.7 2.82051 8V17.05C2.82051 18.15 3.74359 19 4.82051 19H13.1282C14.2564 19 15.1282 18.1 15.1282 17.05V8C15.1282 7.7 15.3333 7.5 15.641 7.5C15.9487 7.5 16.1538 7.7 16.1538 8V17.05C16.1538 18.65 14.7692 20 13.1282 20H4.82051ZM4.8725 17.0499C4.8725 17.35 5.07762 17.5499 5.38532 17.5499C5.64173 17.5499 5.89814 17.2999 5.89814 17.0499V8.69995C5.89814 8.39995 5.69301 8.19995 5.38532 8.19995C5.07762 8.19995 4.8725 8.39995 4.8725 8.69995V17.0499ZM12.5646 17.5499C12.2569 17.5499 12.0518 17.35 12.0518 17.0499V8.69995C12.0518 8.39995 12.2569 8.19995 12.5646 8.19995C12.8723 8.19995 13.0774 8.39995 13.0774 8.69995V17.0499C13.0774 17.2999 12.821 17.5499 12.5646 17.5499ZM8.46214 17.0499C8.46214 17.35 8.66727 17.5499 8.97496 17.5499C9.23137 17.5499 9.48778 17.2999 9.48778 17.0499V8.69995C9.48778 8.39995 9.28265 8.19995 8.97496 8.19995C8.66727 8.19995 8.46214 8.39995 8.46214 8.69995V17.0499Z" fill="white"/>
</svg>
