<svg width="40" height="40" viewBox="0 0 40 40" fill="none" xmlns="http://www.w3.org/2000/svg">
<path fill-rule="evenodd" clip-rule="evenodd" d="M4.93069 8.70622C5.21194 7.98824 6.06637 7.61804 6.8391 7.87937L12.4358 9.77204C13.2085 10.0334 13.6069 10.8272 13.3257 11.5452L12.3072 14.1453C12.0259 14.8632 11.1715 15.2334 10.3987 14.9721L4.80209 13.0794C4.02935 12.8181 3.63092 12.0242 3.91218 11.3063L4.93069 8.70622ZM16.6333 11.1915C15.8605 10.9302 15.0061 11.3004 14.7248 12.0184L13.7063 14.6184C13.4251 15.3364 13.8235 16.1303 14.5962 16.3916L36.9829 23.9623C37.7556 24.2236 38.61 23.8534 38.8913 23.1354L39.9098 20.5354C40.1911 19.8174 39.7926 19.0235 39.0199 18.7622L16.6333 11.1915ZM14.087 17.6916C13.3142 17.4303 12.4598 17.8005 12.1786 18.5185L7.08602 31.5187C6.80477 32.2366 7.2032 33.0305 7.97593 33.2918L27.5642 39.9162C28.337 40.1775 29.1914 39.8073 29.4727 39.0893L34.5652 26.0892C34.8465 25.3712 34.448 24.5773 33.6753 24.316L14.087 17.6916ZM7.09116 15.3258C6.31842 15.0645 5.464 15.4347 5.18274 16.1526L0.0902004 29.1528C-0.191053 29.8708 0.207373 30.6647 0.980111 30.926L3.77844 31.8723C4.55118 32.1337 5.40561 31.7635 5.68686 31.0455L10.7794 18.0453C11.0607 17.3273 10.6622 16.5334 9.88949 16.2721L7.09116 15.3258Z" fill="#FBEFE3"/>
<path fill-rule="evenodd" clip-rule="evenodd" d="M23.3898 11.9536C23.4717 11.9749 23.543 11.9928 23.6025 12.0073C23.6581 12.0317 23.7251 12.0606 23.8026 12.0931C23.9006 12.1344 24.0155 12.1815 24.1454 12.2329C24.1454 12.2329 24.1453 12.2329 24.1454 12.2329C24.4902 12.3693 24.9412 12.536 25.4661 12.7026C27.3471 13.2996 30.1777 13.896 32.4767 13.1004C36.2825 11.7833 38.3928 9.11923 37.1903 7.15007C35.9878 5.18091 31.9278 4.65233 28.122 5.96945C27.644 6.13487 27.2118 6.35259 26.8213 6.60687C26.098 7.07782 25.5181 7.67417 25.0564 8.29587C25.1327 7.54385 25.101 6.74065 24.8728 5.94795C24.7496 5.51994 24.5691 5.09499 24.3174 4.6828C22.3132 1.40087 18.8373 -0.619017 16.5539 0.171255C14.2704 0.961527 14.044 4.2627 16.0482 7.54463C17.2589 9.52717 19.8399 10.7608 21.6938 11.4269C22.2112 11.6127 22.6719 11.7544 23.0305 11.8558C23.0305 11.8559 23.0304 11.8558 23.0305 11.8558C23.1655 11.894 23.2862 11.9266 23.3898 11.9536ZM23.3042 7.75259C23.3302 6.96581 23.183 6.1893 22.7634 5.50208C21.8934 4.07751 20.7227 2.96401 19.5929 2.30747C18.4068 1.61821 17.573 1.5901 17.1775 1.72698C16.9176 1.81693 16.5402 2.09692 16.4763 3.02914C16.412 3.96614 16.727 5.29211 17.6022 6.72536C18.3191 7.89919 19.8289 8.84389 21.4241 9.52116C21.695 9.63615 21.9593 9.73968 22.2109 9.83218C22.3518 9.48316 22.525 9.10067 22.7358 8.70383C22.897 8.4002 23.0854 8.079 23.3042 7.75259ZM26.1733 11.1722C26.43 11.2516 26.7041 11.3301 26.9911 11.4038C28.6817 11.8377 30.4918 12.0158 31.853 11.5447C33.5151 10.9695 34.6736 10.1418 35.2726 9.38566C35.8686 8.63336 35.7732 8.19349 35.6363 7.96934C35.428 7.62828 34.7699 7.15185 33.3844 6.97148C32.0648 6.79967 30.3976 6.95346 28.7457 7.52517C27.9488 7.80097 27.2988 8.30792 26.7745 8.92618C26.7162 9.30689 26.6383 9.66542 26.5518 9.99433C26.4387 10.4242 26.3067 10.8206 26.1733 11.1722Z" fill="#FBEFE3"/>
</svg>
