<svg width="310" height="186" viewBox="0 0 310 186" fill="none" xmlns="http://www.w3.org/2000/svg">
<path fill-rule="evenodd" clip-rule="evenodd" d="M110.81 26.931C111.637 24.7101 114.149 23.565 116.422 24.3733L132.879 30.228C135.152 31.0363 136.323 33.492 135.496 35.713L132.501 43.7557C131.674 45.9766 129.162 47.1218 126.889 46.3134L110.432 40.4588C108.159 39.6504 106.988 37.1947 107.815 34.9738L110.81 26.931ZM145.223 34.6189C142.95 33.8106 140.438 34.9557 139.611 37.1766L136.616 45.2194C135.789 47.4403 136.96 49.896 139.233 50.7044L205.063 74.1229C207.335 74.9312 209.848 73.7861 210.675 71.5652L213.67 63.5224C214.497 61.3015 213.325 58.8458 211.053 58.0374L145.223 34.6189ZM137.735 54.7257C135.463 53.9174 132.95 55.0625 132.123 57.2834L117.148 97.497C116.321 99.718 117.492 102.174 119.765 102.982L177.366 123.473C179.639 124.282 182.151 123.136 182.978 120.916L197.954 80.7019C198.781 78.481 197.609 76.0253 195.337 75.2169L137.735 54.7257ZM117.163 47.4075C114.891 46.5991 112.378 47.7442 111.551 49.9652L96.5758 90.1788C95.7487 92.3997 96.9204 94.8554 99.1927 95.6638L107.421 98.5911C109.694 99.3994 112.206 98.2543 113.033 96.0334L128.009 55.8198C128.836 53.5988 127.664 51.1431 125.392 50.3348L117.163 47.4075Z" fill="#BF8845"/>
<path fill-rule="evenodd" clip-rule="evenodd" d="M165.091 36.9761C165.332 37.042 165.541 37.0974 165.716 37.1424C165.88 37.2178 166.077 37.3072 166.305 37.4079C166.593 37.5354 166.931 37.6811 167.313 37.8401C167.313 37.8401 167.313 37.8401 167.313 37.8401C168.327 38.2622 169.653 38.7778 171.197 39.2931C176.728 41.1398 185.052 42.9848 191.812 40.5236C203.003 36.4494 209.209 28.2086 205.673 22.1174C202.137 16.0262 190.198 14.3911 179.007 18.4654C177.601 18.9771 176.33 19.6505 175.182 20.4371C173.055 21.8939 171.349 23.7386 169.992 25.6617C170.216 23.3355 170.123 20.8509 169.452 18.3989C169.09 17.0749 168.559 15.7604 167.819 14.4854C161.925 4.33333 151.704 -1.91481 144.989 0.529745C138.274 2.9743 137.609 13.1859 143.502 23.3379C147.062 29.4705 154.652 33.2865 160.104 35.3469C161.625 35.9219 162.98 36.3601 164.034 36.6738C164.034 36.6738 164.034 36.6738 164.034 36.6738C164.431 36.792 164.786 36.8926 165.091 36.9761ZM164.839 23.9812C164.916 21.5474 164.483 19.1454 163.249 17.0196C160.691 12.613 157.248 9.16862 153.926 7.13772C150.438 5.00564 147.986 4.91868 146.823 5.34208C146.059 5.62034 144.949 6.48643 144.761 9.37008C144.572 12.2685 145.498 16.3701 148.072 20.8036C150.18 24.4347 154.62 27.3569 159.311 29.4519C160.107 29.8076 160.884 30.1279 161.624 30.414C162.039 29.3344 162.548 28.1512 163.168 26.9237C163.642 25.9844 164.196 24.9909 164.839 23.9812ZM173.276 34.5591C174.031 34.8046 174.837 35.0476 175.681 35.2755C180.652 36.6178 185.975 37.1685 189.978 35.7113C194.866 33.932 198.272 31.3718 200.034 29.0328C201.786 26.7057 201.506 25.345 201.103 24.6517C200.491 23.5967 198.555 22.1229 194.481 21.565C190.601 21.0335 185.698 21.5092 180.841 23.2777C178.497 24.1308 176.586 25.699 175.044 27.6114C174.873 28.7891 174.644 29.8982 174.389 30.9156C174.057 32.2454 173.669 33.4716 173.276 34.5591Z" fill="#BF8845"/>
<path d="M22.9614 146.345H22.3854C19.5374 146.345 17.3134 147.065 15.7134 148.505C14.1454 149.913 13.3614 152.425 13.3614 156.041C13.3614 157.225 13.4734 158.057 13.6974 158.537C13.9214 158.985 14.0334 159.241 14.0334 159.305C12.3054 159.305 11.0094 158.953 10.1454 158.249C9.31338 157.513 8.89738 156.313 8.89738 154.649C8.89738 152.377 9.45738 150.313 10.5774 148.457C11.6974 146.569 13.4734 145.049 15.9054 143.897C18.3694 142.745 21.4894 142.169 25.2654 142.169C27.3774 142.169 29.6494 142.361 32.0814 142.745C34.1294 143.097 35.9534 143.273 37.5534 143.273C39.6014 143.273 41.4574 142.937 43.1214 142.265C43.0574 144.345 42.5294 145.881 41.5374 146.873C40.5454 147.865 39.0734 148.361 37.1214 148.361C36.0974 148.361 35.0734 148.281 34.0494 148.121C33.0254 147.961 31.5694 147.689 29.6814 147.305L23.0574 178.121H16.1454L22.9614 146.345ZM37.4788 178.409C35.6548 178.409 34.1348 177.785 32.9188 176.537C31.7027 175.289 31.0947 173.337 31.0947 170.681C31.0947 168.313 31.5588 165.833 32.4868 163.241C33.4468 160.617 34.8548 158.409 36.7108 156.617C38.5988 154.793 40.8388 153.881 43.4308 153.881C44.7428 153.881 45.7188 154.105 46.3588 154.553C46.9988 155.001 47.3188 155.593 47.3188 156.329V156.665L47.8468 154.121H54.7588L51.3028 170.441C51.1748 170.921 51.1108 171.433 51.1108 171.977C51.1108 173.353 51.7668 174.041 53.0788 174.041C53.9748 174.041 54.7428 173.625 55.3828 172.793C56.0548 171.961 56.5828 170.873 56.9668 169.529H58.9828C57.7988 172.985 56.3268 175.337 54.5668 176.585C52.8388 177.801 51.0948 178.409 49.3348 178.409C47.9908 178.409 46.9028 178.041 46.0708 177.305C45.2708 176.537 44.7908 175.433 44.6308 173.993C43.7028 175.305 42.6628 176.377 41.5108 177.209C40.3908 178.009 39.0468 178.409 37.4788 178.409ZM40.5988 173.753C41.3988 173.753 42.1828 173.385 42.9508 172.649C43.7508 171.881 44.2948 170.841 44.5828 169.529L46.8868 158.681C46.8868 158.265 46.7268 157.865 46.4068 157.481C46.0868 157.065 45.5908 156.857 44.9188 156.857C43.6388 156.857 42.4868 157.609 41.4628 159.113C40.4388 160.585 39.6388 162.377 39.0628 164.489C38.4868 166.569 38.1988 168.409 38.1988 170.009C38.1988 171.609 38.4228 172.633 38.8708 173.081C39.3508 173.529 39.9268 173.753 40.5988 173.753ZM61.7364 178.409C60.2004 178.409 58.9524 177.929 57.9924 176.969C57.0644 176.009 56.6004 174.569 56.6004 172.649C56.6004 171.849 56.7284 170.809 56.9844 169.529L60.2484 154.121H67.1604L63.7044 170.441C63.6084 170.921 63.5604 171.369 63.5604 171.785C63.5604 173.097 64.0404 173.753 65.0004 173.753C65.8964 173.753 66.6644 173.385 67.3044 172.649C67.9444 171.881 68.4564 170.841 68.8404 169.529L72.1044 154.121H79.0164L75.5604 170.441C75.4324 170.921 75.3684 171.433 75.3684 171.977C75.3684 172.617 75.5124 173.081 75.8004 173.369C76.1204 173.625 76.6324 173.753 77.3364 173.753C78.2324 173.753 79.0004 173.369 79.6404 172.601C80.3124 171.833 80.8404 170.809 81.2244 169.529H83.2404C82.0564 172.985 80.5844 175.337 78.8244 176.585C77.0964 177.801 75.3524 178.409 73.5924 178.409C72.2164 178.409 71.1124 178.025 70.2804 177.257C69.4804 176.489 69.0004 175.353 68.8404 173.849C67.7524 175.609 66.6004 176.809 65.3844 177.449C64.2004 178.089 62.9844 178.409 61.7364 178.409ZM69.1764 151.769C67.1924 151.769 65.6564 151.401 64.5684 150.665C63.4804 149.929 62.9364 148.921 62.9364 147.641C62.9364 146.585 63.2244 145.737 63.8004 145.097C64.4084 144.457 65.1924 144.137 66.1524 144.137C67.0804 144.137 67.8004 144.361 68.3124 144.809C68.8564 145.257 69.1284 145.897 69.1284 146.729C69.1284 147.753 68.7444 148.521 67.9764 149.033C68.3924 149.161 69.0324 149.225 69.8964 149.225C71.3364 149.225 72.7284 148.793 74.0724 147.929C75.4484 147.033 76.5204 145.593 77.2884 143.609H79.3044C78.2804 146.585 76.9204 148.697 75.2244 149.945C73.5284 151.161 71.5124 151.769 69.1764 151.769ZM98.6428 178.409C96.8188 178.409 95.4108 177.929 94.4188 176.969C93.4588 175.977 92.9788 174.761 92.9788 173.321C92.9788 172.393 93.3468 170.153 94.0828 166.601H88.7548L86.3068 178.121H79.3947L84.4828 154.121H91.3948L89.3308 163.721H94.7068L96.8668 154.121H103.299L100.755 166.025C100.435 167.401 100.163 168.601 99.9388 169.625C99.7148 170.649 99.6028 171.353 99.6028 171.737C99.6028 173.081 100.243 173.753 101.523 173.753C102.419 173.753 103.139 173.449 103.683 172.841C104.227 172.233 104.851 171.129 105.555 169.529H107.571C105.555 175.449 102.579 178.409 98.6428 178.409ZM112.123 178.409C109.947 178.409 108.251 177.865 107.035 176.777C105.851 175.689 105.259 174.185 105.259 172.265C105.259 171.305 105.371 170.393 105.595 169.529L108.763 154.121H115.387L111.835 171.017C111.739 171.273 111.691 171.721 111.691 172.361C111.691 173.673 112.411 174.329 113.851 174.329C114.715 174.329 115.547 173.977 116.347 173.273C117.147 172.537 117.787 171.561 118.267 170.345C118.747 169.129 118.987 167.801 118.987 166.361C118.987 165.561 118.747 164.953 118.267 164.537C117.851 164.825 117.387 164.969 116.875 164.969C116.331 164.969 115.835 164.793 115.387 164.441C114.971 164.089 114.763 163.577 114.763 162.905C114.763 162.201 115.035 161.657 115.579 161.273C116.123 160.889 116.747 160.697 117.451 160.697C118.187 160.697 118.843 160.793 119.419 160.985C121.467 160.057 123.915 158.729 126.763 157.001C129.067 155.625 130.731 154.665 131.755 154.121H134.731L132.187 166.025C131.867 167.401 131.595 168.601 131.371 169.625C131.147 170.649 131.035 171.353 131.035 171.737C131.035 173.081 131.675 173.753 132.955 173.753C133.851 173.753 134.571 173.449 135.115 172.841C135.659 172.233 136.283 171.129 136.987 169.529H139.003C136.987 175.449 134.027 178.409 130.123 178.409C128.267 178.409 126.859 177.913 125.899 176.921C124.939 175.897 124.459 174.649 124.459 173.177C124.459 172.025 125.339 167.513 127.099 159.641C125.595 160.601 123.803 161.641 121.723 162.761C122.491 163.945 122.875 165.545 122.875 167.561C122.875 169.065 122.475 170.665 121.675 172.361C120.875 174.025 119.659 175.449 118.027 176.633C116.427 177.817 114.459 178.409 112.123 178.409ZM149.48 151.769C147.496 151.769 145.96 151.401 144.872 150.665C143.784 149.929 143.24 148.921 143.24 147.641C143.24 146.585 143.528 145.737 144.104 145.097C144.712 144.457 145.496 144.137 146.456 144.137C147.384 144.137 148.104 144.361 148.616 144.809C149.16 145.257 149.432 145.897 149.432 146.729C149.432 147.753 149.048 148.521 148.28 149.033C148.696 149.161 149.336 149.225 150.2 149.225C151.736 149.225 153.16 148.793 154.472 147.929C155.784 147.065 156.824 145.625 157.592 143.609H159.608C158.584 146.617 157.24 148.729 155.576 149.945C153.944 151.161 151.912 151.769 149.48 151.769ZM141.752 178.409C140.216 178.409 138.968 177.929 138.008 176.969C137.08 176.009 136.616 174.569 136.616 172.649C136.616 171.849 136.744 170.809 137 169.529L140.264 154.121H147.176L143.72 170.441C143.624 170.825 143.576 171.225 143.576 171.641C143.576 173.049 144.056 173.753 145.016 173.753C145.912 173.753 146.68 173.385 147.32 172.649C147.96 171.881 148.472 170.841 148.856 169.529L152.12 154.121H159.032L155.576 170.441C155.448 170.921 155.384 171.433 155.384 171.977C155.384 172.617 155.528 173.081 155.816 173.369C156.136 173.625 156.648 173.753 157.352 173.753C157.864 173.753 158.232 173.721 158.456 173.657C158.712 173.561 158.872 173.497 158.936 173.465C158.808 175.097 158.248 176.329 157.256 177.161C156.264 177.993 155.048 178.409 153.608 178.409C152.264 178.409 151.176 178.009 150.344 177.209C149.544 176.409 149.064 175.289 148.904 173.849C147.816 175.609 146.664 176.809 145.448 177.449C144.264 178.089 143.032 178.409 141.752 178.409ZM180.862 178.889C177.246 178.889 174.59 177.977 172.894 176.153C171.198 174.329 170.35 171.305 170.35 167.081C170.35 163.721 170.91 160.105 172.03 156.233C173.182 152.361 175.006 149.049 177.502 146.297C180.03 143.513 183.23 142.121 187.102 142.121C189.502 142.121 191.438 142.649 192.91 143.705C194.382 144.761 195.118 146.377 195.118 148.553C195.118 149.929 194.846 151.017 194.302 151.817C193.758 152.585 192.91 152.969 191.758 152.969C190.606 152.969 189.694 152.553 189.022 151.721C189.598 151.433 190.11 150.857 190.558 149.993C191.006 149.129 191.23 148.233 191.23 147.305C191.23 146.441 190.99 145.737 190.51 145.193C190.062 144.649 189.326 144.377 188.302 144.377C186.606 144.377 184.99 145.545 183.454 147.881C181.918 150.185 180.67 153.097 179.71 156.617C178.782 160.137 178.318 163.529 178.318 166.793C178.318 169.225 178.734 171.081 179.566 172.361C180.398 173.641 181.902 174.281 184.078 174.281C185.966 174.281 187.71 173.865 189.31 173.033C190.91 172.201 192.286 171.017 193.438 169.481L194.542 169.961C193.742 171.977 192.558 173.657 190.99 175.001C189.422 176.345 187.742 177.337 185.95 177.977C184.158 178.585 182.462 178.889 180.862 178.889ZM199.057 178.409C197.233 178.409 195.713 177.785 194.497 176.537C193.281 175.289 192.673 173.337 192.673 170.681C192.673 168.313 193.137 165.833 194.065 163.241C195.025 160.617 196.433 158.409 198.289 156.617C200.177 154.793 202.417 153.881 205.009 153.881C206.321 153.881 207.297 154.105 207.937 154.553C208.577 155.001 208.897 155.593 208.897 156.329V156.665L209.425 154.121H216.337L212.881 170.441C212.753 170.921 212.689 171.433 212.689 171.977C212.689 173.353 213.345 174.041 214.657 174.041C215.553 174.041 216.321 173.625 216.961 172.793C217.633 171.961 218.161 170.873 218.545 169.529H220.561C219.377 172.985 217.905 175.337 216.145 176.585C214.417 177.801 212.673 178.409 210.913 178.409C209.569 178.409 208.481 178.041 207.649 177.305C206.849 176.537 206.369 175.433 206.209 173.993C205.281 175.305 204.241 176.377 203.089 177.209C201.969 178.009 200.625 178.409 199.057 178.409ZM202.177 173.753C202.977 173.753 203.761 173.385 204.529 172.649C205.329 171.881 205.873 170.841 206.161 169.529L208.465 158.681C208.465 158.265 208.305 157.865 207.985 157.481C207.665 157.065 207.169 156.857 206.497 156.857C205.217 156.857 204.065 157.609 203.041 159.113C202.017 160.585 201.217 162.377 200.641 164.489C200.065 166.569 199.777 168.409 199.777 170.009C199.777 171.609 200.001 172.633 200.449 173.081C200.929 173.529 201.505 173.753 202.177 173.753ZM235.987 178.409C234.163 178.409 232.755 177.929 231.763 176.969C230.803 175.977 230.323 174.761 230.323 173.321C230.323 172.393 230.691 170.153 231.427 166.601H226.099L223.651 178.121H216.738L221.827 154.121H228.739L226.675 163.721H232.051L234.211 154.121H240.643L238.099 166.025C237.779 167.401 237.507 168.601 237.283 169.625C237.059 170.649 236.947 171.353 236.947 171.737C236.947 173.081 237.587 173.753 238.867 173.753C239.763 173.753 240.483 173.449 241.027 172.841C241.571 172.233 242.195 171.129 242.899 169.529H244.915C242.899 175.449 239.923 178.409 235.987 178.409ZM272.075 178.409C270.123 178.409 268.683 177.897 267.755 176.873C266.859 175.817 266.411 174.521 266.411 172.985C266.411 172.313 266.491 171.561 266.651 170.729C266.811 169.865 266.971 169.033 267.131 168.233C267.323 167.433 267.451 166.921 267.515 166.697C267.771 165.577 268.011 164.473 268.235 163.385C268.459 162.297 268.571 161.417 268.571 160.745C268.571 159.113 267.995 158.297 266.843 158.297C266.011 158.297 265.275 158.713 264.635 159.545C263.995 160.345 263.483 161.401 263.099 162.713L259.835 178.121H252.923L256.427 161.561C256.523 161.177 256.571 160.777 256.571 160.361C256.571 158.953 256.091 158.249 255.131 158.249C254.235 158.249 253.451 158.665 252.779 159.497C252.139 160.297 251.627 161.369 251.243 162.713L247.979 178.121H241.067L246.155 154.121H253.067L252.539 156.617C254.171 154.793 256.123 153.881 258.395 153.881C261.211 153.881 262.859 155.257 263.339 158.009C265.099 155.289 267.323 153.929 270.011 153.929C271.643 153.929 272.939 154.377 273.899 155.273C274.859 156.169 275.339 157.529 275.339 159.353C275.339 160.281 275.227 161.321 275.003 162.473C274.779 163.593 274.459 164.969 274.043 166.601C273.787 167.593 273.547 168.569 273.323 169.529C273.131 170.457 273.035 171.193 273.035 171.737C273.035 172.377 273.179 172.873 273.467 173.225C273.755 173.577 274.251 173.753 274.955 173.753C275.915 173.753 276.683 173.417 277.259 172.745C277.835 172.041 278.411 170.969 278.987 169.529H281.003C279.819 173.049 278.443 175.417 276.875 176.633C275.339 177.817 273.739 178.409 272.075 178.409ZM284.744 178.409C282.92 178.409 281.4 177.785 280.184 176.537C278.968 175.289 278.36 173.337 278.36 170.681C278.36 168.313 278.824 165.833 279.752 163.241C280.712 160.617 282.12 158.409 283.976 156.617C285.864 154.793 288.104 153.881 290.696 153.881C292.008 153.881 292.984 154.105 293.624 154.553C294.264 155.001 294.584 155.593 294.584 156.329V156.665L295.112 154.121H302.024L298.568 170.441C298.44 170.921 298.376 171.433 298.376 171.977C298.376 172.617 298.52 173.081 298.808 173.369C299.128 173.625 299.64 173.753 300.344 173.753C300.792 173.753 301.144 173.689 301.4 173.561C300.696 175.353 300.024 176.617 299.384 177.353C298.744 178.057 297.816 178.409 296.6 178.409C295.288 178.409 294.216 178.025 293.384 177.257C292.584 176.457 292.088 175.353 291.896 173.945C289.944 176.921 287.56 178.409 284.744 178.409ZM287.864 173.753C288.664 173.753 289.448 173.385 290.216 172.649C291.016 171.881 291.56 170.841 291.848 169.529L294.152 158.681C294.152 158.265 293.992 157.865 293.672 157.481C293.352 157.065 292.856 156.857 292.184 156.857C290.904 156.857 289.752 157.609 288.728 159.113C287.704 160.585 286.904 162.377 286.328 164.489C285.752 166.569 285.464 168.409 285.464 170.009C285.464 171.609 285.688 172.633 286.136 173.081C286.616 173.529 287.192 173.753 287.864 173.753Z" fill="#BF8845"/>
</svg>
