<svg width="40" height="40" viewBox="0 0 40 40" fill="none" xmlns="http://www.w3.org/2000/svg">
<path d="M20 0C31.04 0 40 8.96 40 20C40 31.04 31.04 40 20 40C8.96 40 0 31.04 0 20C0 8.96 8.96 0 20 0ZM8.04664 26.8326C10.9817 31.2138 15.3902 34 20.3194 34C25.2486 34 29.6572 31.2138 32.5922 26.8326C29.377 23.8344 25.0624 22 20.3194 22C15.5764 22 11.2619 23.8344 8.04664 26.8326ZM20 18C23.3138 18 26 15.3137 26 12C26 8.6863 23.3138 6 20 6C16.6862 6 14 8.6863 14 12C14 15.3137 16.6862 18 20 18Z" fill="#FBEFE3"/>
</svg>
